<?xml version="1.0" encoding="utf-8"?>
<!-- Generator: Adobe Illustrator 27.5.0, SVG Export Plug-In . SVG Version: 6.00 Build 0)  -->
<svg version="1.1" xmlns="http://www.w3.org/2000/svg" xmlns:xlink="http://www.w3.org/1999/xlink" x="0px" y="0px"
	 viewBox="0 0 500 500" style="enable-background:new 0 0 500 500;" xml:space="preserve">
<g id="BACKGROUND">
	<g>
		<g>
			<g>
				<g>
					<g>
						<rect style="fill:#F8E9CB;" width="500" height="500"/>
					</g>
				</g>
			</g>
		</g>
	</g>
</g>
<g id="OBJECTS">
	<g>
		<g>
			<g>
				<polygon style="fill:#EFCD97;" points="87.665,26.219 87.665,35.963 78.214,35.963 78.214,45.419 68.464,45.419 68.464,35.963 
					59.008,35.963 59.008,26.219 68.464,26.219 68.464,16.762 78.214,16.762 78.214,26.219 				"/>
			</g>
		</g>
		<g>
			<g>
				<polygon style="fill:#EFCD97;" points="44.045,62.708 44.045,69.237 37.713,69.237 37.713,75.573 31.18,75.573 31.18,69.237 
					24.844,69.237 24.844,62.708 31.18,62.708 31.18,56.372 37.713,56.372 37.713,62.708 				"/>
			</g>
		</g>
	</g>
	<g>
		<g>
			<polygon style="fill:#EFCD97;" points="77.866,285.107 48.086,285.107 48.086,96.725 77.866,96.725 77.866,98.725 50.086,98.725 
				50.086,283.107 77.866,283.107 			"/>
		</g>
		<g>
			<rect x="49.086" y="189.916" style="fill:#EFCD97;" width="28.78" height="2"/>
		</g>
		<g>
			<rect x="49.086" y="145.702" style="fill:#EFCD97;" width="28.78" height="2"/>
		</g>
		<g>
			<rect x="49.086" y="234.805" style="fill:#EFCD97;" width="28.78" height="2"/>
		</g>
		<g>
			<rect x="49.086" y="120.839" style="fill:#EFCD97;" width="18.768" height="2"/>
		</g>
		<g>
			<rect x="49.086" y="213.049" style="fill:#EFCD97;" width="18.768" height="2"/>
		</g>
		<g>
			<rect x="49.086" y="168.99" style="fill:#EFCD97;" width="18.768" height="2"/>
		</g>
		<g>
			<rect x="49.086" y="261.2" style="fill:#EFCD97;" width="18.768" height="2"/>
		</g>
	</g>
	<g>
		<g>
			<path style="fill:#9A9E42;" d="M176.998,379.004c-6.016-9.913-2.728-23.481-8.838-33.341
				c-4.959-8.001-14.681-11.376-23.529-14.608c-1.416-0.515-2.841-1.066-4.265-1.664c-2.162-0.901-4.303-1.907-6.326-3.064
				c-0.368,2.302-0.924,4.606-1.578,6.855c-0.43,1.478-0.902,2.936-1.382,4.359c-3.026,8.915-6.496,18.604-3.375,27.485
				c3.847,10.943,16.47,16.896,20.416,27.799c3.125,8.626,0.062,18.207,0.918,27.342c1.007,10.706,7.836,20.681,17.45,25.482
				c5.841,2.925,12.412,3.976,18.565,6.151c5.795,2.038,11.601,5.486,14.248,10.967l-0.497-1.121l0.564,1.097
				c-2.602-5.502-1.658-12.181,0.393-17.982c2.172-6.16,5.475-11.936,6.861-18.32c2.285-10.496-1.2-22.071-8.906-29.571
				C191.139,390.472,181.762,386.845,176.998,379.004z"/>
		</g>
		<g>
			<path style="fill:#B9BF70;" d="M198.805,462.396c-0.28,0-0.548-0.157-0.677-0.426l-59.154-123.596
				c-0.179-0.374-0.021-0.822,0.353-1.001c0.374-0.18,0.821-0.02,1,0.353l59.154,123.596c0.179,0.374,0.021,0.822-0.353,1.001
				C199.024,462.372,198.913,462.396,198.805,462.396z"/>
		</g>
		<g>
			<path style="fill:#B9BF70;" d="M158.378,377.929c-0.129,0-0.258-0.033-0.373-0.1l-23.433-13.437
				c-0.359-0.206-0.483-0.664-0.277-1.023c0.206-0.361,0.665-0.482,1.024-0.277l22.514,12.909l4.77-25.984
				c0.075-0.407,0.47-0.681,0.873-0.602c0.408,0.074,0.677,0.465,0.603,0.873l-4.961,27.026c-0.044,0.239-0.202,0.442-0.422,0.545
				C158.593,377.905,158.485,377.929,158.378,377.929z"/>
		</g>
		<g>
			<path style="fill:#B9BF70;" d="M187.134,438.255c-0.129,0-0.258-0.033-0.373-0.1l-29.551-16.944
				c-0.359-0.206-0.483-0.664-0.277-1.023c0.206-0.36,0.664-0.483,1.023-0.277l28.631,16.417l6.065-33.041
				c0.075-0.407,0.468-0.681,0.873-0.601c0.408,0.074,0.677,0.465,0.603,0.873l-6.256,34.083c-0.044,0.239-0.202,0.442-0.422,0.545
				C187.349,438.232,187.241,438.255,187.134,438.255z"/>
		</g>
		<g>
			<path style="fill:#B9BF70;" d="M170.522,403.099c-0.129,0-0.258-0.033-0.373-0.1l-18.331-10.511
				c-0.359-0.206-0.483-0.664-0.277-1.023c0.206-0.36,0.665-0.483,1.023-0.277l17.411,9.983l3.689-20.1
				c0.075-0.407,0.469-0.683,0.873-0.602c0.408,0.074,0.677,0.465,0.602,0.873l-3.881,21.142c-0.044,0.239-0.202,0.442-0.422,0.545
				C170.737,403.075,170.629,403.099,170.522,403.099z"/>
		</g>
	</g>
	<g>
		<g>
			<path style="fill:#B9BF70;" d="M159.797,465.449c8.678,4.712,23.428-4.866,36.331-3.71c-7.19-10.777-5.835-28.317-14.128-33.676
				c-8.29-5.365-19.828,1.381-27.262-3.326c-7.434-4.707-10.407-14.588-17.05-19.779c-6.64-5.181-16.008-5.555-25.531-3.174
				c-9.528,2.378-17.77-0.465-17.77-0.465s6.444,5.87,8.912,15.38c2.465,9.501,7.277,17.548,15.008,20.893
				c7.733,3.354,17.832,1.236,25.523,5.511C151.521,447.378,151.119,460.737,159.797,465.449z"/>
		</g>
		<g>
			<path style="fill:#9A9E42;" d="M195.98,462.737c-0.13,0-0.262-0.034-0.382-0.105l-84.124-49.959
				c-0.356-0.211-0.474-0.671-0.262-1.027c0.212-0.357,0.672-0.474,1.028-0.262l84.124,49.959c0.356,0.211,0.474,0.671,0.262,1.027
				C196.486,462.606,196.236,462.737,195.98,462.737z"/>
		</g>
		<g>
			<path style="fill:#9A9E42;" d="M119.245,429.903c-0.391,0-0.72-0.303-0.747-0.699c-0.028-0.413,0.284-0.771,0.697-0.799
				l18.186-1.237l-7.347-17.045c-0.164-0.381,0.012-0.821,0.392-0.985c0.379-0.166,0.821,0.012,0.986,0.392l7.766,18.019
				c0.096,0.224,0.078,0.48-0.049,0.688c-0.127,0.208-0.347,0.341-0.589,0.357l-19.244,1.309
				C119.28,429.902,119.262,429.903,119.245,429.903z"/>
		</g>
		<g>
			<path style="fill:#9A9E42;" d="M155.212,454.674c-0.391,0-0.72-0.303-0.747-0.699c-0.028-0.413,0.284-0.77,0.697-0.799
				l23.21-1.578l-9.374-21.749c-0.164-0.381,0.012-0.821,0.392-0.985c0.378-0.167,0.821,0.012,0.986,0.392l9.793,22.723
				c0.096,0.224,0.078,0.479-0.049,0.688c-0.127,0.208-0.347,0.341-0.589,0.357l-24.267,1.649
				C155.247,454.673,155.229,454.674,155.212,454.674z"/>
		</g>
		<g>
			<path style="fill:#9A9E42;" d="M140.625,439.753c-0.391,0-0.72-0.303-0.747-0.699c-0.028-0.413,0.284-0.771,0.697-0.799
				l13.996-0.952l-5.655-13.121c-0.163-0.381,0.012-0.821,0.392-0.985c0.379-0.166,0.821,0.011,0.986,0.392l6.075,14.095
				c0.096,0.224,0.078,0.479-0.049,0.688c-0.127,0.208-0.347,0.341-0.589,0.358l-15.053,1.023
				C140.66,439.752,140.642,439.753,140.625,439.753z"/>
		</g>
	</g>
	<g>
		<g>
			<path style="fill:#9A9E42;" d="M327.099,377.014c5.221-9.815,1.338-22.624,6.652-32.393c4.313-7.927,13.436-11.685,21.73-15.259
				c1.328-0.57,2.662-1.174,3.992-1.824c2.02-0.98,4.015-2.059,5.889-3.276c0.477,2.183,1.134,4.359,1.883,6.476
				c0.492,1.392,1.023,2.762,1.56,4.098c3.38,8.369,7.227,17.455,4.721,26.125c-3.089,10.684-14.849,17.066-18.035,27.717
				c-2.523,8.426,0.928,17.431,0.604,26.221c-0.384,10.303-6.379,20.221-15.321,25.338c-5.432,3.117-11.665,4.479-17.437,6.895
				c-5.437,2.265-10.807,5.88-13.044,11.27l0.415-1.1l-0.481,1.081c2.192-5.408,0.926-11.749-1.352-17.191
				c-2.413-5.778-5.889-11.128-7.561-17.164c-2.757-9.923-0.048-21.191,6.921-28.788
				C314.186,388.758,322.964,384.778,327.099,377.014z"/>
		</g>
		<g>
			<path style="fill:#B9BF70;" d="M310.708,458.051c-0.096,0-0.191-0.018-0.285-0.057c-0.383-0.157-0.566-0.595-0.408-0.979
				l49.919-121.514c0.158-0.384,0.596-0.565,0.979-0.408c0.383,0.157,0.566,0.595,0.408,0.979l-49.919,121.514
				C311.282,457.876,311.003,458.051,310.708,458.051z"/>
		</g>
		<g>
			<path style="fill:#B9BF70;" d="M344.823,375.007c-0.094,0-0.188-0.018-0.276-0.053c-0.227-0.09-0.396-0.284-0.452-0.521
				l-6.215-25.601c-0.098-0.402,0.149-0.808,0.552-0.905c0.403-0.101,0.808,0.148,0.905,0.552l5.965,24.57l20.813-13.554
				c0.348-0.225,0.812-0.127,1.038,0.22c0.226,0.347,0.128,0.812-0.22,1.038l-21.701,14.132
				C345.109,374.966,344.967,375.007,344.823,375.007z"/>
		</g>
		<g>
			<path style="fill:#B9BF70;" d="M320.57,434.311c-0.094,0-0.188-0.018-0.276-0.053c-0.227-0.09-0.396-0.284-0.452-0.521
				l-7.837-32.284c-0.098-0.402,0.149-0.808,0.552-0.905c0.4-0.102,0.808,0.149,0.905,0.552l7.587,31.254l26.479-17.244
				c0.349-0.225,0.812-0.127,1.038,0.22c0.226,0.347,0.128,0.811-0.22,1.038l-27.367,17.822
				C320.856,434.27,320.714,434.311,320.57,434.311z"/>
		</g>
		<g>
			<path style="fill:#B9BF70;" d="M334.564,399.758c-0.094,0-0.188-0.017-0.276-0.053c-0.227-0.09-0.396-0.284-0.452-0.52
				l-4.861-20.025c-0.098-0.402,0.149-0.808,0.552-0.905c0.4-0.1,0.808,0.148,0.905,0.552l4.611,18.995l16.088-10.477
				c0.348-0.225,0.812-0.126,1.038,0.22c0.226,0.347,0.128,0.812-0.22,1.038l-16.976,11.055
				C334.85,399.717,334.708,399.758,334.564,399.758z"/>
		</g>
	</g>
	<g>
		<g>
			<path style="fill:#B9BF70;" d="M348.518,453.621c-8.904,4.737-23.886-5.172-37.075-4.103
				c7.436-10.945,6.204-28.872,14.721-34.273c8.513-5.408,20.239,1.581,27.873-3.162c7.634-4.743,10.756-14.81,17.585-20.054
				c6.826-5.235,16.398-5.536,26.103-3.021c9.711,2.512,18.153-0.322,18.153-0.322s-6.632,5.939-9.235,15.632
				c-2.6,9.683-7.584,17.86-15.509,21.21c-7.927,3.359-18.224,1.108-26.115,5.409C357.127,435.236,357.422,448.884,348.518,453.621z
				"/>
		</g>
		<g>
			<path style="fill:#9A9E42;" d="M311.593,450.522c-0.259,0-0.51-0.134-0.649-0.372c-0.208-0.358-0.087-0.817,0.27-1.026
				l86.352-50.298c0.361-0.206,0.817-0.085,1.026,0.27c0.208,0.358,0.087,0.817-0.271,1.026l-86.352,50.298
				C311.85,450.488,311.72,450.522,311.593,450.522z"/>
		</g>
		<g>
			<path style="fill:#9A9E42;" d="M390.25,417.65c-0.02,0-0.039-0.001-0.059-0.002l-19.643-1.502
				c-0.242-0.018-0.461-0.154-0.586-0.362c-0.125-0.209-0.141-0.466-0.043-0.688l8.088-18.336c0.168-0.379,0.61-0.549,0.989-0.384
				c0.379,0.167,0.551,0.61,0.384,0.989l-7.66,17.366l18.587,1.421c0.412,0.032,0.722,0.393,0.691,0.806
				C390.967,417.351,390.637,417.65,390.25,417.65z"/>
		</g>
		<g>
			<path style="fill:#9A9E42;" d="M353.301,442.64c-0.02,0-0.039-0.001-0.059-0.002l-24.772-1.895
				c-0.242-0.019-0.461-0.154-0.586-0.362c-0.125-0.209-0.141-0.466-0.043-0.689l10.199-23.122c0.168-0.379,0.611-0.549,0.989-0.384
				c0.379,0.168,0.551,0.61,0.384,0.989l-9.772,22.152l23.715,1.814c0.412,0.032,0.722,0.393,0.691,0.806
				C354.017,442.341,353.688,442.64,353.301,442.64z"/>
		</g>
		<g>
			<path style="fill:#9A9E42;" d="M368.328,427.527c-0.02,0-0.039-0.001-0.059-0.002l-15.366-1.176
				c-0.242-0.018-0.461-0.154-0.586-0.362c-0.125-0.209-0.141-0.466-0.043-0.688l6.327-14.343c0.168-0.379,0.61-0.55,0.989-0.384
				c0.379,0.168,0.551,0.61,0.384,0.989l-5.899,13.373l14.31,1.095c0.413,0.032,0.722,0.393,0.69,0.806
				C369.045,427.228,368.716,427.527,368.328,427.527z"/>
		</g>
	</g>
	<g>
		<rect y="441.89" style="fill:#C4C481;" width="500" height="58.11"/>
	</g>
	<g>
		<ellipse style="fill:#B9BF70;" cx="247.296" cy="465.159" rx="176.395" ry="13.272"/>
	</g>
	<g>
		<g>
			<path style="fill:#D98029;" d="M464.107,253.756c-9.334,14.084-44.07,65.054-54.194,59.594
				c-10.086-5.44,13.25-62.092,19.97-77.863c1.105-2.547,4.514-3.558,8.211-2.428c6.128,1.889,15.605,5.688,23.829,12.766
				C464.733,248.239,465.578,251.527,464.107,253.756z"/>
		</g>
		<g>
			<path style="fill:#B9BF70;" d="M474.463,234.508c-7.073,1.921-12.406,5.035-15.871,7.514c-3.065,2.209-7.116,2.43-10.448,0.632
				l-0.143-0.077c-3.332-1.797-5.373-5.303-5.211-9.078c0.177-4.23-0.16-10.425-2.439-17.39c-4.233-12.992,12.33-11.367,11.991,1.31
				c-0.033,1.648-0.182,3.21-0.391,4.67c3.478-7.006,8.115-13.201,12.917-10.611c4.819,2.6,2.171,9.868-1.772,16.622
				c1.105-0.977,2.347-1.949,3.687-2.891C477.207,217.971,487.662,230.919,474.463,234.508z"/>
		</g>
		<g>
			<path style="fill:#9A9E42;" d="M448.804,241.46c-0.096,0-0.192-0.017-0.285-0.053c-0.37-0.144-0.576-0.541-0.481-0.927
				c3.891-15.59-3.074-27.876-3.145-27.999c-0.219-0.377-0.09-0.86,0.287-1.078c0.376-0.219,0.859-0.09,1.078,0.287
				c0.27,0.467,5.94,10.473,4.241,24.174l10.707-19.849c0.207-0.384,0.686-0.526,1.068-0.32c0.384,0.207,0.527,0.686,0.32,1.069
				l-13.097,24.281C449.357,241.308,449.087,241.46,448.804,241.46z"/>
		</g>
		<g>
			<path style="fill:#9A9E42;" d="M448.804,241.46c-0.196,0-0.394-0.073-0.547-0.22c-0.314-0.302-0.324-0.801-0.022-1.115
				c12.362-12.855,26.027-12.741,26.608-12.728c0.435,0.009,0.781,0.368,0.773,0.804c-0.008,0.435-0.386,0.765-0.803,0.774
				c-0.158-0.013-13.575-0.096-25.441,12.244C449.218,241.38,449.012,241.46,448.804,241.46z"/>
		</g>
		<g>
			<path style="fill:#CB4F30;" d="M462.616,249.752c-0.077,0-0.156-0.011-0.233-0.035c-17.449-5.392-25.252-13.48-25.576-13.822
				c-0.3-0.316-0.287-0.815,0.029-1.114c0.317-0.3,0.816-0.286,1.116,0.029c0.076,0.081,7.879,8.141,24.896,13.4
				c0.417,0.129,0.649,0.57,0.521,0.986C463.265,249.535,462.953,249.752,462.616,249.752z"/>
		</g>
		<g>
			<path style="fill:#CB4F30;" d="M458.896,262.338c-0.043,0-0.087-0.003-0.131-0.011c-21.858-3.661-32.946-17.717-33.055-17.859
				c-0.267-0.344-0.203-0.839,0.141-1.105c0.345-0.268,0.84-0.203,1.107,0.14c0.106,0.137,10.846,13.713,32.068,17.268
				c0.43,0.072,0.72,0.478,0.648,0.908C459.608,262.065,459.274,262.338,458.896,262.338z"/>
		</g>
		<g>
			<path style="fill:#CB4F30;" d="M448.291,277.288c-0.026,0-0.053-0.002-0.08-0.004c-18.842-1.901-29.107-15.634-29.209-15.773
				c-0.257-0.351-0.181-0.844,0.169-1.102c0.352-0.259,0.844-0.183,1.103,0.169c0.097,0.133,9.974,13.308,28.095,15.136
				c0.433,0.044,0.75,0.431,0.706,0.864C449.034,276.986,448.691,277.288,448.291,277.288z"/>
		</g>
		<g>
			<path style="fill:#CB4F30;" d="M437.834,291.014c-0.018,0-0.035-0.001-0.052-0.002c-15.99-1.053-24.181-12.748-24.522-13.245
				c-0.246-0.359-0.154-0.85,0.205-1.096c0.359-0.244,0.849-0.154,1.096,0.203c0.079,0.116,8.123,11.562,23.324,12.563
				c0.435,0.029,0.764,0.404,0.736,0.839C438.593,290.694,438.246,291.014,437.834,291.014z"/>
		</g>
		<g>
			<path style="fill:#CB4F30;" d="M425.409,305.249c-0.005,0-0.01,0-0.015,0c-11.578-0.232-17.006-8.947-17.232-9.318
				c-0.226-0.372-0.108-0.857,0.263-1.083c0.372-0.225,0.857-0.109,1.084,0.263c0.052,0.083,5.228,8.347,15.915,8.561
				c0.436,0.009,0.782,0.369,0.773,0.804C426.189,304.906,425.837,305.249,425.409,305.249z"/>
		</g>
	</g>
	<g>
		<g>
			<path style="fill:#C1D6F7;" d="M335.698,263.252l12.079,31.062c0.928,2.387,0.122,5.102-1.98,6.581
				c-2.566,1.802-7.164,4.343-15.359,7.53c-8.194,3.187-13.293,4.416-16.41,4.825c-2.539,0.326-4.968-1.131-5.896-3.518
				l-12.079-31.062c-0.464-1.193-0.435-2.507,0.078-3.673c0.513-1.166,0.538-2.489,0.078-3.673l-1.296-3.332
				c-0.182-0.469-0.432-0.901-0.757-1.293c-0.068-0.096-0.141-0.179-0.226-0.268l-2.23-2.359c-0.427-0.444-0.757-0.978-0.984-1.561
				l-8.092-20.808c-0.55-1.414-0.662-2.958-0.323-4.443l6.144-14.53l-0.956-2.457l15.071-5.861l0.956,2.457l14.346,6.562
				l0.477,0.364c1.022,0.824,1.808,1.902,2.286,3.131l8.092,20.808c0.227,0.583,0.335,1.203,0.33,1.815l-0.051,3.245
				c-0.008,0.268,0.014,0.534,0.057,0.802c0.044,0.349,0.136,0.69,0.263,1.017l1.296,3.333c0.46,1.185,1.381,2.139,2.548,2.652
				C334.316,261.113,335.234,262.059,335.698,263.252z"/>
		</g>
		<g>
			<path style="fill:#E06A43;" d="M301.788,206.857l2.92,7.508l-18.836,7.325l-2.92-7.508c-0.587-1.511,0.163-3.209,1.673-3.797
				l13.367-5.198C299.503,204.6,301.2,205.346,301.788,206.857z"/>
		</g>
		<g>
			<g>
				<path style="fill:#90AAE4;" d="M333.951,263.722c-18.264,12.564-35.973,14.028-36.148,14.047h-0.068
					c-0.469,0-0.859-0.361-0.888-0.83c-0.039-0.488,0.332-0.918,0.82-0.947c0.176-0.02,17.454-1.474,35.28-13.735
					c0.4-0.273,0.957-0.176,1.23,0.225C334.458,262.892,334.351,263.449,333.951,263.722z"/>
				<path style="fill:#90AAE4;" d="M319.249,226.656c-18.411,12.661-35.973,14.028-36.148,14.047h-0.068
					c-0.459,0-0.849-0.361-0.888-0.83c-0.029-0.488,0.332-0.918,0.83-0.947c0.166-0.02,17.435-1.474,35.27-13.735
					c0.41-0.283,0.957-0.176,1.24,0.225c0.137,0.195,0.185,0.439,0.146,0.673C319.581,226.324,319.454,226.519,319.249,226.656z"/>
				<path style="fill:#90AAE4;" d="M328.523,250.495c-18.401,12.661-35.973,14.028-36.148,14.038l-0.068,0.01
					c-0.459,0-0.849-0.361-0.888-0.83c-0.039-0.488,0.332-0.918,0.82-0.947c0.176-0.02,17.445-1.474,35.28-13.735
					c0.195-0.137,0.43-0.185,0.664-0.146c0.234,0.049,0.439,0.176,0.576,0.371C329.031,249.665,328.933,250.221,328.523,250.495z"/>
				<path style="fill:#90AAE4;" d="M310.795,308.012c0.088,0.215,0.078,0.459-0.019,0.674c-0.088,0.225-0.264,0.391-0.488,0.478
					c-0.098,0.039-0.215,0.059-0.322,0.059c-0.371,0-0.703-0.224-0.83-0.566l-9.938-25.557c-0.088-0.224-0.078-0.469,0.01-0.683
					c0.098-0.215,0.273-0.381,0.498-0.469c0.215-0.088,0.459-0.088,0.683,0.01c0.215,0.098,0.381,0.273,0.469,0.498L310.795,308.012
					z"/>
				<path style="fill:#90AAE4;" d="M289.212,222.39c-0.039-0.488,0.332-0.918,0.82-0.957c0.068,0,6.589-0.517,11.129-4.315
					c0.176-0.156,0.41-0.225,0.644-0.205c0.244,0.02,0.459,0.137,0.605,0.312c0.322,0.381,0.263,0.947-0.107,1.259
					c-4.998,4.188-11.851,4.705-12.144,4.725l-0.059,0.01C289.632,223.22,289.241,222.849,289.212,222.39z"/>
			</g>
		</g>
		<g>
			<path style="fill:#CB4F30;" d="M284.181,213.629c-0.259,0-0.503-0.157-0.602-0.413c-0.129-0.333,0.035-0.707,0.368-0.837
				l16.568-6.443c0.333-0.129,0.708,0.035,0.836,0.368c0.129,0.333-0.035,0.707-0.368,0.837l-16.568,6.443
				C284.338,213.615,284.259,213.629,284.181,213.629z"/>
		</g>
	</g>
	<g>
		<g>
			<g>
				<path style="fill:#E9BE83;" d="M426.164,209.646v0.007l-5.404,80.065c-0.415,6.805-6.091,12.134-12.909,12.134h-69.304
					c-6.818,0-12.488-5.329-12.909-12.141l-5.411-80.058c-0.217-3.61,1.02-7.036,3.487-9.667c2.474-2.631,5.819-4.079,9.429-4.079
					h0.469c4.289,0,7.994-2.855,9.225-7.104c3.888-13.426,16.369-22.807,30.359-22.807c13.99,0,26.478,9.381,30.366,22.807
					c1.23,4.249,4.935,7.104,9.225,7.104h0.469c3.61,0,6.954,1.448,9.429,4.079C425.151,202.617,426.388,206.05,426.164,209.646z"/>
			</g>
			<g>
				<path style="fill:#F8E9CB;" d="M422.771,209.442l-5.404,80.065c-0.306,5.017-4.487,8.946-9.517,8.946h-69.304
					c-5.03,0-9.211-3.929-9.517-8.953l-5.404-80.058c-0.17-2.658,0.748-5.194,2.57-7.131c1.822-1.937,4.29-3.005,6.947-3.005h0.469
					c5.812,0,10.836-3.841,12.488-9.551c3.474-11.991,14.615-20.36,27.096-20.36c12.488,0,23.629,8.368,27.103,20.36
					c1.652,5.71,6.675,9.551,12.488,9.551h0.469c2.658,0,5.126,1.067,6.947,3.005C422.024,204.249,422.941,206.784,422.771,209.442z
					"/>
			</g>
		</g>
		<g>
			<path style="fill:#E9BE83;" d="M371.17,221.882v62.473c0,5.318-4.662,9.632-10.427,9.632h-16.403
				c-5.487,0-10.033-3.93-10.405-8.985l-5.049-62.473c-0.401-5.561,4.371-10.279,10.405-10.279h21.452
				C366.508,212.25,371.17,216.564,371.17,221.882z"/>
		</g>
		<g>
			<path style="fill:#E9BE83;" d="M375.226,221.882v62.473c0,5.318,4.663,9.632,10.427,9.632h16.403
				c5.487,0,10.033-3.93,10.405-8.985l5.049-62.473c0.401-5.561-4.371-10.279-10.405-10.279h-21.452
				C379.888,212.25,375.226,216.564,375.226,221.882z"/>
		</g>
		<g>
			<path style="fill:#E9BE83;" d="M398.625,201.04h-50.018c0,0,2.298-26.083,25.009-26.083
				C396.328,174.957,398.625,201.04,398.625,201.04z"/>
		</g>
		<g>
			<path style="fill:#475F9A;" d="M373.617,183.618c-0.459,0-0.831-0.372-0.831-0.831v-5.946c0-0.459,0.371-0.831,0.831-0.831
				c0.459,0,0.831,0.372,0.831,0.831v5.946C374.447,183.247,374.076,183.618,373.617,183.618z"/>
		</g>
		<g>
			<path style="fill:#475F9A;" d="M359.546,197.689h-5.945c-0.459,0-0.831-0.372-0.831-0.831c0-0.459,0.372-0.831,0.831-0.831h5.945
				c0.459,0,0.831,0.372,0.831,0.831C360.376,197.316,360.005,197.689,359.546,197.689z"/>
		</g>
		<g>
			<path style="fill:#475F9A;" d="M393.632,197.689h-5.945c-0.459,0-0.831-0.372-0.831-0.831c0-0.459,0.372-0.831,0.831-0.831h5.945
				c0.459,0,0.831,0.372,0.831,0.831C394.462,197.316,394.091,197.689,393.632,197.689z"/>
		</g>
		<g>
			<path style="fill:#475F9A;" d="M383.565,187.739c-0.213,0-0.425-0.081-0.587-0.243c-0.325-0.325-0.325-0.85,0-1.175l4.204-4.204
				c0.325-0.325,0.85-0.325,1.175,0c0.325,0.325,0.325,0.85,0,1.175l-4.204,4.204C383.99,187.658,383.778,187.739,383.565,187.739z"
				/>
		</g>
		<g>
			<path style="fill:#475F9A;" d="M363.667,187.739c-0.213,0-0.425-0.081-0.587-0.243l-4.204-4.204c-0.324-0.325-0.324-0.85,0-1.175
				c0.325-0.325,0.85-0.325,1.175,0l4.204,4.204c0.325,0.324,0.325,0.85,0,1.175C364.092,187.658,363.88,187.739,363.667,187.739z"
				/>
		</g>
		<g>
			<path style="fill:#E06A43;" d="M380.23,201.04h-13.229c0-3.657,2.957-6.614,6.614-6.614
				C377.267,194.426,380.23,197.383,380.23,201.04z"/>
		</g>
		<g>
			<polygon style="fill:#E06A43;" points="371.285,197.733 375.947,197.733 373.616,185.227 			"/>
		</g>
	</g>
	<g>
		<g>
			<g>
				<path style="fill:#CB4F30;" d="M211.529,297.245l-0.225,1.232c-2.043,11.138-11.754,19.227-23.073,19.227H78.321
					c-11.319,0-21.03-8.089-23.073-19.227l-0.225-1.232H211.529z"/>
			</g>
			<g>
				<path style="fill:#E06A43;" d="M82.614,317.704c0,0,9.109,17.329,50.662,17.329c41.553,0,50.907-17.329,50.907-17.329H82.614z"
					/>
			</g>
		</g>
		<g>
			<g>
				<path style="fill:#CB4F30;" d="M444.193,297.245l-0.225,1.232c-2.043,11.138-11.754,19.227-23.073,19.227h-109.91
					c-11.319,0-21.03-8.089-23.073-19.227l-0.225-1.232H444.193z"/>
			</g>
			<g>
				<path style="fill:#E06A43;" d="M315.278,317.704c0,0,9.109,17.329,50.662,17.329s50.907-17.329,50.907-17.329H315.278z"/>
			</g>
			<g>
				<path style="fill:#AA3A26;" d="M437.66,301.352H292.812c-0.553,0-1-0.447-1-1c0-0.553,0.447-1,1-1H437.66c0.553,0,1,0.447,1,1
					C438.66,300.905,438.213,301.352,437.66,301.352z"/>
			</g>
		</g>
		<g>
			<g>
				<polygon style="fill:#E9BE83;" points="125.235,334.8 128.89,350.983 367.819,350.983 375.783,334.68 				"/>
			</g>
			<g>
				<path style="fill:#CB4F30;" d="M313.959,452.734h-126.9l25.006-93.304c4.66-17.404,20.431-29.502,38.447-29.502
					c9.005,0,17.45,3.021,24.229,8.221c6.773,5.2,11.881,12.579,14.211,21.281L313.959,452.734z"/>
			</g>
			<g>
				<path style="fill:#E06A43;" d="M172.257,466.314l0.225-1.232c2.043-11.138,11.754-19.227,23.073-19.227h109.91
					c11.319,0,21.03,8.089,23.073,19.227l0.225,1.232H172.257z"/>
			</g>
			<g>
				<circle style="fill:#E9BE83;" cx="251.23" cy="357.162" r="17.453"/>
			</g>
			<g>
				<path style="fill:#AA3A26;" d="M198.517,439.108c-0.082,0-0.165-0.01-0.248-0.031c-0.535-0.136-0.859-0.681-0.723-1.216
					l19.038-74.79c0.136-0.535,0.682-0.863,1.216-0.722c0.535,0.136,0.859,0.681,0.723,1.216l-19.037,74.79
					C199.37,438.807,198.963,439.108,198.517,439.108z"/>
			</g>
			<g>
				<path style="fill:#AA3A26;" d="M301.11,421.615c-0.443,0-0.849-0.298-0.967-0.747l-16.599-63.453
					c-0.14-0.534,0.181-1.081,0.715-1.221c0.533-0.135,1.08,0.181,1.221,0.715l16.599,63.453c0.14,0.534-0.181,1.081-0.715,1.221
					C301.279,421.604,301.194,421.615,301.11,421.615z"/>
			</g>
		</g>
	</g>
	<g>
		<g>
			<g>
				<circle style="fill:#B9BF70;" cx="373.391" cy="244.204" r="25.675"/>
			</g>
		</g>
		<g>
			<g>
				<g>
					<path style="fill:#F8E9CB;" d="M373.391,266.662c-12.383,0-22.457-10.074-22.457-22.457c0-12.383,10.074-22.458,22.457-22.458
						c12.383,0,22.457,10.075,22.457,22.458C395.849,256.588,385.774,266.662,373.391,266.662z M373.391,225.582
						c-10.268,0-18.622,8.354-18.622,18.623c0,10.268,8.354,18.622,18.622,18.622c10.268,0,18.622-8.354,18.622-18.622
						C392.014,233.936,383.66,225.582,373.391,225.582z"/>
				</g>
			</g>
		</g>
		<g>
			<g>
				<path style="fill:#F8E9CB;" d="M370.904,253.229c-0.509,0-0.996-0.202-1.356-0.562l-10.395-10.395
					c-0.749-0.749-0.749-1.963,0-2.711c0.749-0.749,1.962-0.749,2.711,0l9.039,9.039l13.747-13.747c0.749-0.749,1.962-0.749,2.711,0
					c0.749,0.749,0.749,1.963,0,2.712l-15.103,15.103C371.9,253.027,371.413,253.229,370.904,253.229z"/>
			</g>
		</g>
	</g>
	<g>
		<g>
			<g>
				<polygon style="fill:#EFCD97;" points="405.473,89.211 405.473,100.9 394.137,100.9 394.137,112.244 382.44,112.244 
					382.44,100.9 371.097,100.9 371.097,89.211 382.44,89.211 382.44,77.867 394.137,77.867 394.137,89.211 				"/>
			</g>
		</g>
		<g>
			<g>
				<polygon style="fill:#EFCD97;" points="436.741,48.682 436.741,57.587 428.104,57.587 428.104,66.229 419.194,66.229 
					419.194,57.587 410.552,57.587 410.552,48.682 419.194,48.682 419.194,40.04 428.104,40.04 428.104,48.682 				"/>
			</g>
		</g>
		<g>
			<g>
				<polygon style="fill:#EFCD97;" points="363.575,51.475 363.575,57.442 357.788,57.442 357.788,63.232 351.818,63.232 
					351.818,57.442 346.028,57.442 346.028,51.475 351.818,51.475 351.818,45.685 357.788,45.685 357.788,51.475 				"/>
			</g>
		</g>
		<g>
			<g>
				<polygon style="fill:#EFCD97;" points="454.339,128.794 454.339,134.76 448.552,134.76 448.552,140.551 442.582,140.551 
					442.582,134.76 436.792,134.76 436.792,128.794 442.582,128.794 442.582,123.004 448.552,123.004 448.552,128.794 				"/>
			</g>
		</g>
	</g>
	<g>
		<g>
			<path style="fill:#E79E73;" d="M164.72,116.85v0.062c0,0-13.723,22.534-17.125,26.47c-3.41,3.936-17.11,8.927-20.589,9.082
				c-3.487,0.155-10.825-8.702-10.446-11.352c0.372-2.65,8.26-18.954,8.26-18.954c3.061-0.597,5.207-0.883,5.207-0.883l2.294-9.523
				c6.005,1.697,16.471-1.35,28.268-15.901v21.038C160.59,116.889,162.263,116.843,164.72,116.85z"/>
		</g>
		<g>
			<path style="fill:#E79E73;" d="M216.064,299.346c0.217,1.798-4.091,9.694-4.595,11.492c-0.504,1.798-4.239,1.511-4.239,1.511
				s-2.549,1.581-3.805,0.86c0,0-2.689,0.945-3.371,0.186c0,0,0,0.961-3.518,0.604c-3.518-0.364-5.169-0.504-5.169-0.504
				s-0.108-1.116,0.93-2.201l0.147-0.147c0.046-0.046,0.101-0.093,0.155-0.139c0.806-0.69,2.131-1.325,4.293-1.604l0.434-8.113
				l-4.169-3.448l-1.147,1.937c0,0,1.93,7.718-0.264,11.112c-0.047,0.085-0.108,0.163-0.163,0.24
				c-0.062,0.078-0.124,0.155-0.194,0.233c-0.488,0.55-1.131,0.93-1.968,1.054c0,0-0.713-0.287-1.868-5.889
				c-1.147-5.603-2.867-9.547-2.58-11.058c0.132-0.697,1.689-4.68,3.34-8.795c0.008-0.016,0.016-0.023,0.016-0.023
				c1.953-4.866,4.037-9.919,4.037-9.919l-6.928-40.465l-4.704-27.47l-1.589-6.571l-8.88-36.629c0,0,0,0,0-0.008
				c-3.82-6.796-8.291-15.32-8.291-17.97c0-4.618,6.912-30.709,6.912-30.709c5.207,0.139,11.453,0.573,14.281,1.79
				c0,0,16.668,6.16,17.241,24.254c0.574,18.094,2.015,63.479,2.015,63.479l5.882,74.243
				C208.308,280.679,215.848,297.556,216.064,299.346z"/>
		</g>
		<g>
			<path style="fill:#E79E73;" d="M109.679,187.59l0.062,5.913l-16.342,52.995c-5.231,2.301-13.785,6.13-22.991,10.5l7.144-30.639
				c0,0,23.061-90.043,27.245-96.149c2.146-3.131,8.725-5.401,14.622-6.866c0,0-19.295,36.04-20.132,43.456
				C98.459,174.224,109.679,187.59,109.679,187.59z"/>
		</g>
		<g>
			<path style="fill:#E79E73;" d="M185.441,236.269c-67.207-9.004-81.093-4.324-81.527-4.177l6.091-14.026l-0.171-15.73h0.171
				c0,0,24.642-7.981,68.694,0l0.449-0.109l1.589,6.571L185.441,236.269z"/>
		</g>
		<g>
			<path style="fill:#212936;" d="M73.36,350.319c0.535,9.221,0.411,19.148-0.023,28.47c-13.793,9.415-30.492,3.34-30.786,3.239
				c-0.008-0.008-0.008-0.008-0.008-0.008c-5.045-24.037-10.91-54.204-13.406-75.467c-0.054-0.449-0.108-0.891-0.155-1.333
				c0-0.008,0-0.008,0-0.016c-1.395-12.344-1.573-21.449,0.318-24.239c3.634-5.347,23.549-15.63,41.108-23.967
				c9.206-4.37,17.761-8.198,22.991-10.5c3.285-1.449,5.254-2.294,5.254-2.294c10.329,1.798,28.663,2.294,28.663,2.294
				S45.58,285.483,36.839,291.31c-3.673,2.449-4.75,8.857-4.084,14.824c0.201,1.821,0.566,3.596,1.069,5.207
				C33.825,311.341,55.003,334.472,73.36,350.319z"/>
		</g>
		<g>
			<path style="fill:#2B3448;" d="M192.368,276.734c0,0-2.084,5.052-4.037,9.919c0,0-0.008,0.008-0.016,0.023
				c-0.705,0.914-25.54,32.592-104.518,27.4c0,0,15.025,11.05,20.682,21.713c0.914,1.72,2.146,3.789,3.58,6.06
				c-6.246,17.117-19.667,21.023-20.047,21.131c-0.008,0-0.008,0-0.008,0c-4.727-4.076-9.702-8.369-14.646-12.662
				c-18.357-15.847-39.535-38.977-39.535-38.977c-0.504-1.612-0.868-3.386-1.069-5.207c-0.666-5.967,0.411-12.375,4.084-14.824
				c8.741-5.827,90.477-44.812,90.477-44.812s-18.334-0.496-28.663-2.294l5.254-12.104c0,0,0,0,0.008-0.008
				c0.434-0.147,14.32-4.828,81.527,4.177L192.368,276.734z"/>
		</g>
		<g>
			<path style="fill:#E79E73;" d="M73.336,378.788c-0.759,16.404-2.464,30.91-3.138,36.273c-9.965,6.083-17.412,3.874-19.767,2.883
				c-1.341-5.827-4.417-19.419-7.881-35.916C42.844,382.128,59.543,388.203,73.336,378.788z"/>
		</g>
		<g>
			<path style="fill:#E79E73;" d="M127.781,370.14c-2.356,11.383-8.748,15.583-11.616,16.924
				c-2.239-1.906-14.103-11.988-28.152-24.084c0.38-0.108,13.801-4.014,20.047-21.131
				C114.669,352.333,125.448,366.994,127.781,370.14z"/>
		</g>
		<g>
			<path style="fill:#CB4F30;" d="M179.148,202.228l-0.449,0.109c-44.053-7.981-68.694,0-68.694,0h-0.171l-0.093-8.834l-0.062-5.913
				c0,0-11.221-13.367-10.392-20.79c0.837-7.416,20.132-43.456,20.132-43.456c1.93-0.48,3.789-0.876,5.401-1.186
				c0,0-7.888,16.304-8.26,18.954c-0.38,2.65,6.959,11.507,10.446,11.352c3.479-0.155,17.179-5.145,20.589-9.082
				c3.402-3.936,17.125-26.47,17.125-26.47v-0.062c1.232,0.008,2.658,0.023,4.169,0.062c0,0-6.912,26.091-6.912,30.709
				c0,2.65,4.471,11.174,8.291,17.97c0,0.008,0,0.008,0,0.008L179.148,202.228z"/>
		</g>
		<g>
			<path style="fill:#F8E9CB;" d="M87.131,433.757c-24.826,26.494-54.648,32.826-54.648,32.826
				c-2.055-1.043-3.387-2.153-4.134-3.307c0,0,7.93-1.701,18.59-6.45c9.34-4.157,20.774-10.681,30.807-20.473
				c2.199-2.124,4.317-4.422,6.344-6.888C85.958,431.965,87.131,433.757,87.131,433.757z"/>
		</g>
		<g>
			<path style="fill:#E06A43;" d="M77.746,436.353c0,0-5.623-4.657-0.793-15.348c2.774,2.823,5.297,5.985,7.137,8.46
				C82.063,431.931,79.945,434.229,77.746,436.353z"/>
		</g>
		<g>
			<path style="fill:#CB4F30;" d="M77.746,436.355c-10.035,9.787-21.465,16.311-30.81,20.473
				c-6.199-7.059-12.491-6.036-12.491-6.036c3.96-4.192,8.594-9.167,8.594-9.167l6.602-24.06c0,0,0.271,0.163,0.79,0.38
				c2.356,0.992,9.802,3.2,19.767-2.883c0.543-0.333,1.093-0.697,1.651-1.077l5.107,7.021
				C72.12,431.698,77.746,436.355,77.746,436.355z"/>
		</g>
		<g>
			<path style="fill:#EFCD97;" d="M54.229,427.64c-0.301,0-0.599-0.136-0.796-0.393c-1.526-1.999-4.131-3.216-6.646-3.075
				c-0.555,0.028-1.022-0.395-1.05-0.947c-0.029-0.552,0.395-1.021,0.947-1.051c3.196-0.155,6.395,1.313,8.34,3.858
				c0.335,0.439,0.251,1.067-0.188,1.402C54.654,427.573,54.441,427.64,54.229,427.64z"/>
		</g>
		<g>
			<path style="fill:#EFCD97;" d="M51.134,433.084c-0.267,0-0.533-0.106-0.73-0.316c-1.301-1.391-3.294-2.155-5.181-1.969
				c-0.551,0.052-1.038-0.354-1.088-0.904c-0.051-0.55,0.354-1.037,0.903-1.088c2.498-0.226,5.112,0.763,6.826,2.594
				c0.377,0.403,0.356,1.036-0.046,1.414C51.624,432.994,51.379,433.084,51.134,433.084z"/>
		</g>
		<g>
			<path style="fill:#EFCD97;" d="M48.073,438.225c-0.289,0-0.576-0.125-0.773-0.365c-1.076-1.311-2.658-2.194-4.339-2.426
				c-0.547-0.074-0.93-0.579-0.855-1.126c0.075-0.548,0.575-0.935,1.127-0.854c2.174,0.298,4.22,1.441,5.612,3.137
				c0.351,0.427,0.289,1.057-0.138,1.407C48.522,438.151,48.297,438.225,48.073,438.225z"/>
		</g>
		<g>
			<path style="fill:#F8E9CB;" d="M152.714,372.585c1.154,36.289-15.475,61.842-15.475,61.842c-2.192,0.714-3.918,0.87-5.262,0.581
				c0,0,4.41-6.807,8.597-17.7c3.671-9.541,7.153-22.237,7.334-36.255c0.055-3.057-0.07-6.18-0.378-9.357
				C150.618,372.146,152.714,372.585,152.714,372.585z"/>
		</g>
		<g>
			<path style="fill:#E06A43;" d="M147.908,381.053c0,0-7.27,0.678-11.406-10.3c3.958,0.038,7.978,0.492,11.028,0.943
				C147.837,374.874,147.962,377.996,147.908,381.053z"/>
		</g>
		<g>
			<path style="fill:#E06A43;" d="M140.574,417.308c-4.187,10.893-8.597,17.7-8.597,17.7c-3.226-0.653-4.308-3.738-4.368-7.451
				c-0.027-1.451-0.076-3.494-0.141-5.691C127.467,421.866,131.201,416.698,140.574,417.308z"/>
		</g>
		<g>
			<path style="fill:#CB4F30;" d="M147.905,381.051c-0.178,14.018-3.658,26.718-7.33,36.257c-9.376-0.612-13.103,4.556-13.103,4.556
				c-0.163-5.757-0.395-12.561-0.395-12.561l-12.336-21.682c0,0,0.55-0.147,1.426-0.558c2.867-1.341,9.26-5.54,11.616-16.924
				c0.054-0.248,0.101-0.496,0.147-0.744l8.57,1.356C140.636,381.733,147.905,381.051,147.905,381.051z"/>
		</g>
		<g>
			<path style="fill:#EFCD97;" d="M116.65,394.639c-0.239,0-0.479-0.085-0.669-0.258c-0.41-0.37-0.442-1.002-0.072-1.412
				c2.146-2.378,5.456-3.589,8.628-3.162c0.547,0.074,0.932,0.577,0.858,1.125c-0.074,0.547-0.579,0.924-1.124,0.857
				c-2.489-0.336-5.191,0.654-6.877,2.52C117.196,394.528,116.924,394.639,116.65,394.639z"/>
		</g>
		<g>
			<path style="fill:#EFCD97;" d="M120.199,400.464c-0.226,0-0.452-0.076-0.639-0.232c-0.424-0.353-0.483-0.983-0.129-1.408
				c1.604-1.927,4.171-3.075,6.662-2.986c0.552,0.019,0.984,0.482,0.966,1.033c-0.019,0.551-0.486,1.014-1.033,0.965
				c-1.905-0.057-3.841,0.805-5.058,2.267C120.77,400.341,120.486,400.464,120.199,400.464z"/>
		</g>
		<g>
			<path style="fill:#EFCD97;" d="M122.041,405.185c-0.303,0-0.601-0.137-0.798-0.397c-0.334-0.44-0.247-1.067,0.193-1.4
				c1.75-1.325,4.004-1.958,6.189-1.746c0.549,0.055,0.951,0.544,0.896,1.094c-0.054,0.549-0.538,0.948-1.094,0.897
				c-1.688-0.166-3.431,0.325-4.784,1.35C122.464,405.118,122.251,405.185,122.041,405.185z"/>
		</g>
		<g>
			<path style="fill:#E06A43;" d="M160.59,95.851v2.921c-9.934,20.55-23.448,19.581-29.454,17.884v-0.008l1.186-4.897
				c1.341,0.883,2.704,1.449,4.053,1.581c5.393,0.512,15.475-4.827,21.457-12.902C158.9,98.989,159.838,97.455,160.59,95.851z"/>
		</g>
		<g>
			<path style="fill:#E06A43;" d="M46.939,456.826c-10.659,4.749-18.59,6.45-18.59,6.45c-1.822-2.742-0.407-5.689,2.174-8.359
				c1.007-1.046,2.415-2.526,3.921-4.127C34.444,450.789,40.738,449.771,46.939,456.826z"/>
		</g>
		<g>
			<path style="fill:#E06A43;" d="M185.44,237.27c-0.468,0-0.885-0.329-0.98-0.805l-6.742-33.934l-8.424-36.717
				c-2.223-9.175-5.282-12.641-5.313-12.675c-0.369-0.408-0.34-1.04,0.067-1.411c0.407-0.372,1.036-0.344,1.408,0.061
				c0.138,0.15,3.419,3.8,5.784,13.566l8.434,36.757l6.748,33.961c0.107,0.542-0.245,1.068-0.786,1.176
				C185.57,237.264,185.504,237.27,185.44,237.27z"/>
		</g>
		<g>
			<path style="fill:#E06A43;" d="M200.054,314.395c-0.138,0-0.278-0.028-0.412-0.089c-0.503-0.228-0.727-0.82-0.499-1.323
				l3.948-8.731c0.227-0.503,0.82-0.727,1.323-0.499c0.503,0.228,0.727,0.82,0.499,1.323l-3.948,8.731
				C200.799,314.176,200.435,314.395,200.054,314.395z"/>
		</g>
		<g>
			<path style="fill:#E06A43;" d="M203.425,314.209c-0.156,0-0.314-0.036-0.461-0.113c-0.49-0.255-0.68-0.859-0.424-1.349
				l4.454-8.546c0.256-0.49,0.859-0.68,1.349-0.425c0.49,0.255,0.68,0.859,0.424,1.349l-4.454,8.546
				C204.135,314.014,203.786,314.209,203.425,314.209z"/>
		</g>
		<g>
			<path style="fill:#E06A43;" d="M207.23,313.349c-0.157,0-0.317-0.037-0.466-0.115c-0.488-0.258-0.675-0.863-0.417-1.352
				l3.773-7.148c0.258-0.489,0.862-0.674,1.351-0.418c0.488,0.258,0.675,0.863,0.418,1.352l-3.773,7.147
				C207.936,313.155,207.589,313.349,207.23,313.349z"/>
		</g>
		<g>
			<path style="fill:#E06A43;" d="M113.743,218.529c-0.432,0-0.831-0.282-0.959-0.718c-0.156-0.53,0.147-1.086,0.677-1.241
				c0.457-0.135,11.456-3.254,34.243-0.031c0.547,0.077,0.927,0.583,0.85,1.13c-0.078,0.548-0.59,0.928-1.13,0.85
				c-22.359-3.163-33.291-0.061-33.398-0.031C113.932,218.517,113.837,218.529,113.743,218.529z"/>
		</g>
		<g>
			<path style="fill:#E79E73;" d="M169.811,89.93c-2.084,2.224-5.161,3.448-8.183,3.363c-0.147,0.434-0.31,0.868-0.48,1.294
				c-0.17,0.426-0.356,0.845-0.558,1.263c-0.752,1.604-1.689,3.138-2.759,4.58c-5.982,8.075-16.064,13.414-21.457,12.902
				c-1.348-0.132-2.712-0.697-4.053-1.581c-0.426-0.279-0.852-0.589-1.271-0.93c-5.626-4.564-10.508-14.072-11.515-18.396
				c-1.325-5.657-0.442-14.94-0.442-14.94h0.008c-0.233-0.535-0.419-3.642-0.419-3.642c0-0.054,0.016-8.346,9.206-15.382
				c0,0,14.847,20.395,34.824,17.427c0.914-1.093,2.425-1.643,3.89-1.565c0.535,0.023,1.054,0.14,1.542,0.326
				c1.116,0.426,2.046,1.209,2.751,2.162c0.682,0.907,1.17,1.968,1.457,3.069C173.275,83.359,172.283,87.304,169.811,89.93z"/>
		</g>
		<g>
			<path style="fill:#2B3448;" d="M232.32,111.149c-3.611,3.45-8.445,5.458-13.38,6.217c-7.365,1.131-15.109-0.43-21.462-4.328
				c-6.344-3.906-11.245-10.115-13.557-17.193c-2.202-6.757-2.084-14.021-3.223-21.031c-1.139-7.019-3.999-14.367-10.115-17.977
				l-0.278,0.084c-0.548-1.847-1.029-2.885-1.029-2.885c-1.164-2.784-2.691-5.07-4.488-6.926c3.239-2.185,7.221-3.265,11.127-2.97
				c4.547,0.354,8.934,2.573,11.903,6.04c5.517,6.428,5.998,16.358,12.3,22.027c4.117,3.712,9.87,4.8,15.236,6.184
				c5.112,1.325,10.208,3.079,14.451,6.217c4.235,3.147,7.55,7.862,7.972,13.118C238.183,102.704,235.922,107.699,232.32,111.149z"
				/>
		</g>
		<g>
			<path style="fill:#2B3448;" d="M170.897,76.814c-0.709-0.953-1.637-1.738-2.75-2.168c-0.489-0.186-1.012-0.295-1.544-0.32
				c-1.468-0.076-2.978,0.472-3.889,1.561c-19.977,2.97-34.824-17.421-34.824-17.421c-9.221,7.052-8.79,19.023-8.79,19.023
				s-0.633-1.653-0.641-1.662c-0.202-0.388-3.467-6.673-3.543-14.325c-0.051-5.433,5.492-11.085,8.959-14.08l0.008-0.008
				c0.017-0.017,0.034-0.042,0.051-0.059c5.703-6.133,29.037-12.511,40.856-0.245c1.797,1.856,3.324,4.142,4.488,6.926
				c0,0,0.481,1.038,1.029,2.885C171.445,60.735,172.862,68.015,170.897,76.814z"/>
		</g>
		<g>
			<path style="fill:#E06A43;" d="M164.084,90.055c-0.013,0-0.026,0-0.039-0.001c-0.552-0.021-0.982-0.485-0.96-1.038
				c0.31-8.057,5.41-11.343,5.627-11.479c0.469-0.294,1.086-0.152,1.378,0.316c0.293,0.467,0.152,1.083-0.313,1.377
				c-0.193,0.123-4.427,2.918-4.694,9.863C165.062,89.632,164.619,90.055,164.084,90.055z"/>
		</g>
		<g>
			<path style="fill:#E06A43;" d="M139.836,93.565c0.015,0.205-0.235,0.365-0.511,0.335c-1.47-0.2-5.508-0.872-5.814-2.405
				c-0.288-1.457,3.264-7.662,4.886-10.401c0.183-0.321,0.836-0.22,0.857,0.13L139.836,93.565z"/>
		</g>
		<g>
			<path style="fill:#2B3448;" d="M133.237,81.215c-0.423,0-0.816-0.271-0.952-0.696c-0.021-0.056-0.688-1.786-3.865-1.862
				c-3.349-0.067-4.459,1.284-4.505,1.342c-0.337,0.426-0.958,0.517-1.394,0.188c-0.434-0.327-0.535-0.932-0.217-1.374
				c0.166-0.231,1.766-2.274,6.164-2.156c4.666,0.111,5.682,3.124,5.723,3.252c0.168,0.526-0.122,1.089-0.648,1.257
				C133.441,81.199,133.338,81.215,133.237,81.215z"/>
		</g>
		<g>
			<path style="fill:#2B3448;" d="M122.372,76.696c-0.302,0-0.6-0.136-0.796-0.394c-0.335-0.439-0.25-1.066,0.189-1.401
				c1.594-1.215,3.572-1.983,5.568-2.162c1.997-0.179,4.079,0.225,5.864,1.136c0.492,0.252,0.687,0.854,0.436,1.346
				c-0.251,0.492-0.852,0.687-1.346,0.436c-1.454-0.743-3.152-1.072-4.775-0.925c-1.626,0.146-3.236,0.771-4.535,1.76
				C122.796,76.629,122.583,76.696,122.372,76.696z"/>
		</g>
		<g>
			<path style="fill:#2B3448;" d="M129.873,77.808c0.321,0.106,0.26,0.635,0.251,0.997c-0.025,1.062-0.907,1.902-1.969,1.877
				c-1.062-0.025-1.903-0.907-1.877-1.969c0.008-0.347,0.108-0.67,0.275-0.947C126.553,77.768,128.44,77.336,129.873,77.808z"/>
		</g>
		<g>
			<path style="fill:#2B3448;" d="M143.716,81.452c-0.121,0-0.243-0.022-0.362-0.069c-0.506-0.201-0.763-0.759-0.573-1.27
				c0.047-0.126,1.194-3.102,5.872-2.976c4.408,0.104,5.898,2.208,6.054,2.447c0.301,0.463,0.169,1.082-0.294,1.383
				c-0.458,0.297-1.07,0.172-1.373-0.279c-0.065-0.088-1.126-1.474-4.434-1.552c-3.163-0.065-3.926,1.622-3.957,1.694
				C144.487,81.215,144.11,81.452,143.716,81.452z"/>
		</g>
		<g>
			<path style="fill:#2B3448;" d="M154.787,77.467c-0.227,0-0.455-0.077-0.643-0.234c-1.25-1.05-2.829-1.751-4.446-1.974
				c-1.617-0.224-3.326,0.024-4.813,0.697c-0.504,0.228-1.096,0.004-1.323-0.499c-0.228-0.503-0.004-1.096,0.499-1.323
				c1.826-0.826,3.926-1.129,5.911-0.856c1.985,0.274,3.924,1.135,5.458,2.424c0.423,0.355,0.478,0.986,0.122,1.409
				C155.355,77.346,155.072,77.467,154.787,77.467z"/>
		</g>
		<g>
			<path style="fill:#2B3448;" d="M150.511,78.338c0.258,0.195,0.238,0.612,0.229,0.959c-0.025,1.062-0.907,1.902-1.969,1.877
				c-1.062-0.025-1.902-0.907-1.877-1.969c0.009-0.362,0.117-0.699,0.298-0.984C147.193,78.22,149.728,77.745,150.511,78.338z"/>
		</g>
		<g>
			<path style="fill:#DF895D;" d="M130.413,90.104c0.069,1.829-2.156,3.398-4.969,3.503s-5.149-1.291-5.218-3.121
				c-0.069-1.829,2.156-3.398,4.969-3.503C128.008,86.878,130.344,88.275,130.413,90.104z"/>
		</g>
		<g>
			<path style="fill:#DF895D;" d="M155.605,89.599c0.069,1.829-2.156,3.398-4.969,3.503c-2.813,0.106-5.149-1.292-5.218-3.121
				c-0.069-1.829,2.156-3.398,4.969-3.503C153.2,86.373,155.536,87.77,155.605,89.599z"/>
		</g>
		<g>
			<path style="fill:#FFFFFF;" d="M144.927,100.672c-0.986,1.794-2.958,3.938-6.716,3.834c-3.755-0.103-5.605-2.352-6.495-4.198
				c-0.51-1.066,0.148-2.399,1.177-2.371l10.992,0.303C144.915,98.269,145.499,99.636,144.927,100.672z"/>
		</g>
	</g>
</g>
</svg>
